<?xml version="1.0" encoding="utf-8"?>
<!DOCTYPE svg PUBLIC "-//W3C//DTD SVG 1.0//EN" "http://www.w3.org/TR/2001/REC-SVG-20010904/DTD/svg10.dtd">
<svg version="1.0" xmlns="http://www.w3.org/2000/svg" width="627px" height="358px" viewBox="0 0 627 358" preserveAspectRatio="xMidYMid meet">
 <g fill="#d51524">
  <path d="M31.49 349.28 c-0.37 -0.89 -0.05 -339.35 0.28 -339.72 0.33 -0.28 29.58 8.58 89.99 27.29 18.10 5.60 44.23 13.72 58.08 17.96 38.67 11.94 61.49 18.99 73.01 22.53 5.78 1.82 19.13 5.92 29.62 9.19 10.54 3.27 32.56 10.08 48.98 15.16 16.42 5.09 38.77 12.04 49.68 15.40 10.92 3.41 34.52 10.73 52.48 16.33 17.96 5.60 43.15 13.44 55.98 17.40 12.83 3.97 37.93 11.80 55.75 17.35 17.82 5.60 37.60 11.76 43.95 13.67 6.34 1.96 11.48 3.64 11.38 3.69 -0.19 0.19 -22.39 6.67 -50.20 14.65 -11.66 3.36 -30.14 8.68 -41.05 11.85 -10.92 3.17 -30 8.72 -42.45 12.32 -29.20 8.40 -115.70 33.40 -135.76 39.23 -4.48 1.31 -16.47 4.76 -26.59 7.70 -10.12 2.94 -21.97 6.34 -26.36 7.60 -20.85 6.11 -120.36 34.85 -150.45 43.48 -18.61 5.32 -37.09 10.64 -41.05 11.80 -13.90 4.06 -54.54 15.72 -54.82 15.72 -0.14 0 -0.37 -0.28 -0.47 -0.61z m184.32 -119.76 c8.30 -0.70 16.33 -2.01 25.19 -4.20 18.15 -4.48 32 -11.06 45.39 -21.65 3.55 -2.80 4.15 -3.08 6.06 -3.08 2.10 0 11.29 2.05 23.84 5.36 11.29 2.94 18.19 4.06 25.43 4.11 7.14 0.05 10.45 -0.56 14.88 -2.80 5.74 -2.89 10.92 -7.65 13.02 -11.99 1.17 -2.38 1.26 -2.85 0.75 -4.06 -0.28 -0.75 -1.12 -1.77 -1.77 -2.24 -2.94 -2.10 -12.83 -4.34 -33.87 -7.74 -36.06 -5.83 -42.27 -6.90 -48.70 -8.54 -8.16 -2.10 -9.38 -2.71 -9.38 -4.99 0 -4.25 3.36 -9.33 11.52 -17.59 l4.48 -4.57 3.45 0 c6.39 0 24.35 4.39 38.86 9.47 14.42 5.04 50.10 20.39 76.28 32.75 13.34 6.30 36.25 15.81 43.25 17.96 0.93 0.28 1.40 0.19 2.01 -0.47 0.70 -0.79 0.61 -1.03 -1.54 -3.55 -5.09 -6.16 -25.10 -22.81 -40.91 -34.06 -18.24 -13.02 -36.90 -23.79 -56.68 -32.75 -28.64 -12.97 -72.03 -26.96 -99.37 -32.10 -12.74 -2.38 -19.64 -0.28 -29.16 8.77 -5.13 4.85 -9.19 10.40 -15.91 21.74 -2.19 3.73 -2.33 3.83 -4.06 3.83 -1.35 0 -2.57 -0.56 -5.13 -2.24 -4.90 -3.31 -16.33 -9.75 -25.43 -14.28 -23.61 -11.80 -49.96 -20.76 -68.90 -23.42 -7.84 -1.07 -20.15 -0.65 -26.96 0.98 -9.80 2.29 -17.17 6.58 -18.52 10.78 -0.93 2.75 0.98 9.33 5.46 18.85 3.83 8.26 16.98 32.14 18.61 33.87 1.82 1.96 2.66 2.01 4.62 0.05 2.05 -2.05 3.22 -5.92 4.99 -16.89 0.79 -4.85 1.59 -9.33 1.82 -9.89 0.33 -0.93 0.75 -1.07 3.08 -1.07 6.11 0 8.30 1.54 22.91 16.09 10.59 10.64 10.82 10.87 10.82 12.74 0 1.91 -0.05 1.96 -3.87 4.48 -7.42 4.90 -12.41 10.73 -15.07 17.63 -1.96 5.09 -2.05 5.18 -5.09 6.11 -6.34 1.96 -18.33 5.92 -20.06 6.62 -4.01 1.68 -4.25 3.22 -0.56 3.73 1.07 0.14 7.74 0.56 14.79 0.93 14.56 0.84 22.77 1.49 25.24 2.15 0.93 0.23 4.20 2.05 7.23 4.11 10.87 7.14 20.34 11.94 30.23 15.21 15.44 5.13 31.02 7.09 46.75 5.83z"/>
 </g>
 <g fill="#fefefe">
  <path d="M191.27 228.08 c-19.78 -2.38 -35.83 -8.54 -53.65 -20.53 -2.94 -2.01 -6.20 -3.83 -7.23 -4.11 -3.22 -0.79 -27.48 -2.85 -34.15 -2.85 -1.96 0 -2.01 -0.05 -2.01 -1.59 0 -0.84 0.28 -1.82 0.65 -2.10 0.79 -0.65 5.78 -2.38 13.76 -4.76 3.45 -0.98 6.48 -2.05 6.81 -2.29 0.33 -0.28 1.07 -1.77 1.63 -3.41 3.31 -9.24 8.63 -15.77 16.47 -20.11 2.24 -1.26 4.20 -2.43 4.29 -2.61 0.37 -0.61 -6.11 -7.65 -14.98 -16.33 -11.90 -11.66 -15.77 -14.42 -20.29 -14.46 -3.59 0 -3.92 0.75 -6.02 13.58 -1.49 9.10 -2.43 13.02 -3.55 14.79 -0.51 0.79 -1.12 1.03 -2.75 1.03 -2.05 0 -2.05 0 -3.87 -3.13 -8.07 -14.14 -17.12 -31.91 -19.45 -38.16 -1.45 -3.83 -1.82 -5.46 -1.96 -9.10 -0.23 -4.11 -0.14 -4.57 0.89 -6.06 2.10 -3.13 10.03 -6.25 19.73 -7.74 6.58 -1.03 21.65 -0.65 29.39 0.70 18.85 3.36 42.41 11.57 63.91 22.30 8.26 4.15 19.92 10.73 25.19 14.23 4.81 3.17 4.99 4.01 1.91 8.77 -1.17 1.77 -2.05 3.27 -1.91 3.27 0.37 0 3.78 -5.27 9.33 -14.46 7.23 -11.99 10.54 -16.79 14.37 -20.81 9.84 -10.40 18.15 -11.66 41.61 -6.25 33.96 7.79 73.52 21.69 101.19 35.55 26.64 13.34 54.54 32.66 77.86 53.93 5.78 5.27 6.39 6.02 6.39 7.42 0 1.49 -0.05 1.54 -1.87 1.54 -3.22 0 -24.45 -8.72 -48.75 -20.06 -26.96 -12.55 -56.12 -25.01 -71.24 -30.37 -13.62 -4.81 -33.26 -9.56 -37.55 -9 -2.38 0.28 -2.57 0.42 -7.93 5.97 -5.92 6.06 -9.33 10.45 -10.87 14 -1.77 4.15 -1.26 4.99 4.01 6.81 7.18 2.47 17.54 4.53 41.01 8.16 28.27 4.29 42.45 7.04 45.95 8.86 1.68 0.84 2.33 2.01 2.33 3.97 0 2.24 -1.26 4.48 -4.39 7.84 -6.16 6.58 -11.85 8.96 -21.32 8.96 -10.12 0 -14.84 -0.79 -35.18 -5.92 -8.49 -2.10 -14.88 -3.50 -16.23 -3.45 -2.10 0.05 -2.52 0.28 -6.30 3.45 -5.50 4.67 -8.68 6.62 -18.43 11.52 -12.88 6.53 -21.18 9.28 -35.08 11.76 -7.56 1.35 -8.63 1.40 -23.09 1.54 -8.35 0.09 -16.75 -0.05 -18.66 -0.28z m-56.82 -41.33 c1.07 -0.98 1.07 -1.49 -0.19 -2.80 -1.31 -1.40 -1.96 -1.35 -3.13 0.19 l-0.98 1.21 1.03 1.12 c1.17 1.26 2.10 1.35 3.27 0.28z m65.22 -33.17 c0 -0.42 -4.11 3.41 -4.15 3.87 -0.05 0.23 0.89 -0.51 2.05 -1.63 1.17 -1.12 2.10 -2.15 2.10 -2.24z"/>
 </g>
 <g fill="#3a1f1e">
  <path d="M197.34 231.07 c-22.02 -1.73 -40.12 -8.12 -59.90 -21.18 -3.03 -2.05 -6.30 -3.87 -7.23 -4.11 -2.47 -0.65 -10.73 -1.35 -25.24 -2.15 -14.93 -0.79 -16.23 -0.93 -17.35 -1.96 -1.87 -1.68 -0.51 -3.97 3.13 -5.50 1.73 -0.70 13.76 -4.67 20.06 -6.62 3.03 -0.93 3.13 -1.03 5.09 -6.11 2.66 -6.90 7.65 -12.74 15.07 -17.63 2.15 -1.40 3.87 -2.75 3.87 -2.94 0 -0.65 -13.58 -14.56 -19.50 -19.92 -6.11 -5.64 -8.44 -7.09 -11.71 -7.51 -2.94 -0.33 -2.75 -0.79 -4.62 10.82 -2.15 13.25 -3.50 16.84 -6.86 18.24 -2.10 0.84 -4.57 0.09 -6.02 -1.82 -1.73 -2.29 -13.58 -23.98 -17.35 -31.82 -5.50 -11.48 -7.60 -19.22 -6.30 -23.23 1.45 -4.25 8.72 -8.49 18.71 -10.87 6.81 -1.63 21.41 -2.05 29.62 -0.93 18.94 2.66 45.30 11.62 68.90 23.42 9.10 4.53 20.53 10.96 25.43 14.28 1.87 1.21 3.55 2.24 3.73 2.24 0.23 0 1.40 -1.73 2.66 -3.83 6.72 -11.34 10.78 -16.89 15.91 -21.74 7.37 -7.04 11.99 -9.19 20.76 -9.70 5.78 -0.33 11.52 0.65 27.06 4.48 34.15 8.49 70.82 21.74 97.50 35.22 25.19 12.78 52.39 31.58 76 52.62 6.90 6.16 9.84 9.66 9.84 11.71 0 1.82 -1.21 3.08 -2.94 3.08 -3.08 0 -28.22 -10.12 -45.81 -18.43 -26.17 -12.36 -61.86 -27.71 -76.28 -32.75 -12.88 -4.53 -32.47 -9.47 -37.46 -9.47 -1.96 0 -2.19 0.19 -6.53 4.57 -2.47 2.47 -5.69 6.02 -7.09 7.79 -2.52 3.17 -4.71 7.79 -4.20 8.68 0.61 0.89 3.03 1.77 9.52 3.41 6.25 1.59 12.55 2.66 48.33 8.44 20.43 3.27 30.65 5.60 33.68 7.56 6.20 4.06 -0.05 15.35 -11.80 21.27 -4.67 2.38 -7.65 2.89 -16.28 2.85 -8.77 -0.05 -14.70 -0.98 -26.82 -4.15 -8.86 -2.33 -21.55 -5.36 -22.44 -5.36 -0.42 0 -2.52 1.40 -4.67 3.08 -7.42 5.88 -14.42 10.12 -23.05 14.09 -19.08 8.68 -46.47 13.53 -67.41 11.90z m34.29 -5.64 c13.90 -2.47 22.16 -5.22 35.08 -11.76 9.70 -4.85 12.92 -6.86 18.33 -11.43 5.88 -4.99 5.64 -4.99 24.49 -0.28 17.21 4.29 20.25 4.95 26.45 5.60 13.86 1.54 20.76 -0.56 28.18 -8.44 4.71 -5.09 5.22 -7.37 2.05 -9 -3.50 -1.82 -17.68 -4.57 -45.95 -8.86 -24.35 -3.73 -35.32 -5.97 -42.31 -8.58 -3.31 -1.26 -3.87 -1.96 -3.83 -4.71 0.19 -4.62 4.67 -11.34 13.34 -19.92 l4.34 -4.34 3.55 -0.28 c2.80 -0.23 4.67 -0.05 9.56 0.93 13.34 2.80 27.71 7.18 41.94 12.88 15.02 6.02 39.89 16.84 58.78 25.66 20.20 9.38 46.23 20.34 47.44 19.97 0.23 -0.09 -2.47 -2.80 -6.02 -6.02 -27.85 -25.43 -59.43 -46.23 -92.28 -60.74 -30.84 -13.62 -76.14 -27.85 -99.83 -31.35 -11.10 -1.68 -18.15 0.75 -25.75 8.82 -3.87 4.06 -7.09 8.72 -14.79 21.51 -6.39 10.50 -11.20 17.49 -14.84 21.46 -2.38 2.66 -3.31 3.13 -4.95 2.52 -1.87 -0.70 -1.31 -2.38 1.91 -5.60 3.13 -3.27 10.22 -13.39 9.80 -14.09 -0.84 -1.40 -17.91 -11.34 -28.83 -16.79 -21.51 -10.73 -45.16 -18.99 -63.91 -22.30 -7.74 -1.35 -20.29 -1.68 -26.59 -0.70 -9.75 1.49 -17.63 4.62 -19.73 7.74 -2.47 3.64 -0.42 10.78 7.79 26.82 2.75 5.41 6.34 12.22 7.98 15.16 7 12.64 7.14 12.83 8.58 10.64 1.12 -1.77 2.05 -5.69 3.55 -14.79 2.24 -13.58 2.33 -13.72 7.32 -13.72 6.16 -0.05 9.24 2.15 24.63 17.59 11.34 11.34 13.34 13.86 12.41 15.58 -0.28 0.51 -2.33 1.91 -4.57 3.17 -7.84 4.34 -13.16 10.87 -16.47 20.11 -0.56 1.63 -1.31 3.13 -1.63 3.41 -0.33 0.28 -2.47 1.03 -4.71 1.68 -7.60 2.15 -15.49 4.90 -16.05 5.60 -0.51 0.56 -0.28 0.65 1.45 0.65 6.72 0 30.98 2.05 34.24 2.85 1.03 0.28 4.29 2.10 7.23 4.11 15.54 10.45 28.83 16.14 45.02 19.17 8.68 1.59 11.66 1.82 25.89 1.63 12.83 -0.14 14.28 -0.23 21.69 -1.54z"/>
  <path d="M130.21 188.19 c-2.61 -2.19 -1.40 -6.34 2.10 -7 1.17 -0.23 1.77 0 2.99 1.07 4.20 3.73 -0.79 9.56 -5.09 5.92z"/>
 </g>
</svg>